<?xml version="1.0" encoding="UTF-8" standalone="no"?>
<!-- Created with Inkscape (http://www.inkscape.org/) -->

<svg
   xmlns:dc="http://purl.org/dc/elements/1.1/"
   xmlns:cc="http://creativecommons.org/ns#"
   xmlns:rdf="http://www.w3.org/1999/02/22-rdf-syntax-ns#"
   xmlns:svg="http://www.w3.org/2000/svg"
   xmlns="http://www.w3.org/2000/svg"
   xmlns:sodipodi="http://sodipodi.sourceforge.net/DTD/sodipodi-0.dtd"
   xmlns:inkscape="http://www.inkscape.org/namespaces/inkscape"
   width="7.0020638mm"
   height="13.147284mm"
   viewBox="0 0 24.810462 46.584862"
   id="svg2"
   version="1.1"
   inkscape:version="0.91 r13725"
   sodipodi:docname="white ribbon lung cancer.svg">
  <defs
     id="defs4">
    <clipPath
       id="clipEmfPath1"
       clipPathUnits="userSpaceOnUse">
      <path
         inkscape:connector-curvature="0"
         id="path3341"
         d="m 5.00114,-1.25029 511.36686,0 0,867.69829 -511.36686,0 z" />
    </clipPath>
    <pattern
       y="0"
       x="0"
       height="6"
       width="6"
       patternUnits="userSpaceOnUse"
       id="EMFhbasepattern" />
    <clipPath
       id="clipEmfPath1-9"
       clipPathUnits="userSpaceOnUse">
      <path
         inkscape:connector-curvature="0"
         id="path3734"
         d="m 5.00114,-1.25029 497.61386,0 0,175.04029 -497.61386,0 z" />
    </clipPath>
    <pattern
       y="0"
       x="0"
       height="6"
       width="6"
       patternUnits="userSpaceOnUse"
       id="EMFhbasepattern-1" />
    <clipPath
       id="clipEmfPath1-97"
       clipPathUnits="userSpaceOnUse">
      <path
         inkscape:connector-curvature="0"
         id="path3839"
         d="m 5.00114,-1.25029 497.61386,0 0,175.04029 -497.61386,0 z" />
    </clipPath>
    <pattern
       y="0"
       x="0"
       height="6"
       width="6"
       patternUnits="userSpaceOnUse"
       id="EMFhbasepattern-12" />
    <clipPath
       id="clipEmfPath1-97-3"
       clipPathUnits="userSpaceOnUse">
      <path
         inkscape:connector-curvature="0"
         id="path3839-7"
         d="m 5.00114,-1.25029 497.61386,0 0,175.04029 -497.61386,0 z" />
    </clipPath>
    <clipPath
       id="clipPath3949"
       clipPathUnits="userSpaceOnUse">
      <path
         inkscape:connector-curvature="0"
         id="path3951"
         d="m 5.00114,-1.25029 497.61386,0 0,175.04029 -497.61386,0 z" />
    </clipPath>
    <clipPath
       id="clipPath3953"
       clipPathUnits="userSpaceOnUse">
      <path
         inkscape:connector-curvature="0"
         id="path3955"
         d="m 5.00114,-1.25029 497.61386,0 0,175.04029 -497.61386,0 z" />
    </clipPath>
    <clipPath
       id="clipPath3957"
       clipPathUnits="userSpaceOnUse">
      <path
         inkscape:connector-curvature="0"
         id="path3959"
         d="m 5.00114,-1.25029 497.61386,0 0,175.04029 -497.61386,0 z" />
    </clipPath>
    <clipPath
       id="clipPath3961"
       clipPathUnits="userSpaceOnUse">
      <path
         inkscape:connector-curvature="0"
         id="path3963"
         d="m 5.00114,-1.25029 497.61386,0 0,175.04029 -497.61386,0 z" />
    </clipPath>
    <clipPath
       id="clipPath3965"
       clipPathUnits="userSpaceOnUse">
      <path
         inkscape:connector-curvature="0"
         id="path3967"
         d="m 5.00114,-1.25029 497.61386,0 0,175.04029 -497.61386,0 z" />
    </clipPath>
    <clipPath
       id="clipPath3969"
       clipPathUnits="userSpaceOnUse">
      <path
         inkscape:connector-curvature="0"
         id="path3971"
         d="m 5.00114,-1.25029 497.61386,0 0,175.04029 -497.61386,0 z" />
    </clipPath>
    <clipPath
       id="clipEmfPath1-97-3-6"
       clipPathUnits="userSpaceOnUse">
      <path
         inkscape:connector-curvature="0"
         id="path3839-7-5"
         d="m 5.00114,-1.25029 497.61386,0 0,175.04029 -497.61386,0 z" />
    </clipPath>
    <clipPath
       id="clipPath4087"
       clipPathUnits="userSpaceOnUse">
      <path
         inkscape:connector-curvature="0"
         id="path4089"
         d="m 5.00114,-1.25029 497.61386,0 0,175.04029 -497.61386,0 z" />
    </clipPath>
    <clipPath
       id="clipPath4091"
       clipPathUnits="userSpaceOnUse">
      <path
         inkscape:connector-curvature="0"
         id="path4093"
         d="m 5.00114,-1.25029 497.61386,0 0,175.04029 -497.61386,0 z" />
    </clipPath>
    <clipPath
       id="clipPath4095"
       clipPathUnits="userSpaceOnUse">
      <path
         inkscape:connector-curvature="0"
         id="path4097"
         d="m 5.00114,-1.25029 497.61386,0 0,175.04029 -497.61386,0 z" />
    </clipPath>
    <clipPath
       id="clipPath4099"
       clipPathUnits="userSpaceOnUse">
      <path
         inkscape:connector-curvature="0"
         id="path4101"
         d="m 5.00114,-1.25029 497.61386,0 0,175.04029 -497.61386,0 z" />
    </clipPath>
  </defs>
  <sodipodi:namedview
     id="base"
     pagecolor="#ffffff"
     bordercolor="#666666"
     borderopacity="1.0"
     inkscape:pageopacity="0.0"
     inkscape:pageshadow="2"
     inkscape:zoom="5.6"
     inkscape:cx="39.55166"
     inkscape:cy="24.403005"
     inkscape:document-units="px"
     inkscape:current-layer="layer1"
     showgrid="false"
     fit-margin-top="0"
     fit-margin-left="0"
     fit-margin-right="0"
     fit-margin-bottom="0"
     inkscape:window-width="1366"
     inkscape:window-height="706"
     inkscape:window-x="-8"
     inkscape:window-y="-8"
     inkscape:window-maximized="1" />
  <metadata
     id="metadata7">
    <rdf:RDF>
      <cc:Work
         rdf:about="">
        <dc:format>image/svg+xml</dc:format>
        <dc:type
           rdf:resource="http://purl.org/dc/dcmitype/StillImage" />
        <dc:title></dc:title>
      </cc:Work>
    </rdf:RDF>
  </metadata>
  <g
     inkscape:label="Layer 1"
     inkscape:groupmode="layer"
     id="layer1"
     transform="translate(-148.90144,-343.87895)">
    <path
       inkscape:connector-curvature="0"
       id="path3878"
       d="m 149.52997,355.87263 c 0.022,-1.30116 2.66841,-11.84281 11.95324,-11.512 9.30656,0.3308 11.53386,10.3211 11.51184,11.62226 0,1.32323 -7.69676,-3.77116 -11.62219,-3.79321 -3.90342,-0.0221 -11.8649,4.98413 -11.84289,3.68295 z"
       style="fill:#ffffff;fill-opacity:1;fill-rule:evenodd;stroke:none" />
    <path
       inkscape:connector-curvature="0"
       id="path3880"
       d="m 149.52997,355.87263 c 0.022,-1.30116 2.66841,-11.84281 11.95324,-11.512 9.30656,0.3308 11.53386,10.3211 11.51184,11.62226 0,1.32323 -7.69676,-3.77116 -11.62219,-3.79321 -3.90342,-0.0221 -11.8649,4.98413 -11.84289,3.68295"
       style="fill:none;stroke:#000000;stroke-width:0.94830716px;stroke-linecap:butt;stroke-linejoin:round;stroke-miterlimit:4;stroke-dasharray:none;stroke-opacity:1" />
    <path
       inkscape:connector-curvature="0"
       id="path3882"
       d="m 168.16538,346.80858 c 0.86022,0.97037 7.03524,6.26325 4.23418,12.76906 -2.77876,6.48377 -14.97442,25.05295 -18.21631,30.41207 -1.45542,-2.91112 -1.91855,-3.13182 -4.80766,-8.04954 3.24189,-5.60183 14.66568,-22.38457 17.77521,-28.18469 3.1098,-5.80012 -0.022,-7.43207 1.01458,-6.9469 z"
       style="fill:#ffffff;fill-opacity:1;fill-rule:evenodd;stroke:none" />
    <path
       inkscape:connector-curvature="0"
       id="path3884"
       d="m 168.16538,346.80858 c 0.86022,0.97037 7.03524,6.26325 4.23418,12.76906 -2.77876,6.48377 -14.97442,25.05295 -18.21631,30.41207 -1.45542,-2.91112 -1.91855,-3.13182 -4.80766,-8.04954 3.24189,-5.60183 14.66568,-22.38457 17.77521,-28.18469 3.1098,-5.80012 -0.022,-7.43207 1.01458,-6.9469"
       style="fill:none;stroke:#000000;stroke-width:0.94830716px;stroke-linecap:butt;stroke-linejoin:round;stroke-miterlimit:4;stroke-dasharray:none;stroke-opacity:1" />
    <path
       inkscape:connector-curvature="0"
       id="path3886"
       d="m 154.40395,346.74243 c -0.86022,0.97036 -7.05725,6.26322 -4.25648,12.74702 2.80077,6.50581 15.01874,25.0751 18.26063,30.43394 1.45542,-2.91112 1.91854,-3.13154 4.82966,-8.04954 -3.2639,-5.60155 -14.70998,-22.3844 -17.81951,-28.18452 -3.10952,-5.80012 0.022,-7.45414 -1.0143,-6.9469 z"
       style="fill:#ffffff;fill-opacity:1;fill-rule:evenodd;stroke:none" />
    <path
       inkscape:connector-curvature="0"
       id="path3888"
       d="m 154.40395,346.74243 c -0.86022,0.97036 -7.05725,6.26322 -4.25648,12.74702 2.80077,6.50581 15.01874,25.0751 18.26063,30.43394 1.45542,-2.91112 1.91854,-3.13154 4.82966,-8.04954 -3.2639,-5.60155 -14.70998,-22.3844 -17.81951,-28.18452 -3.10952,-5.80012 0.022,-7.45414 -1.0143,-6.9469"
       style="fill:none;stroke:#000000;stroke-width:0.94830716px;stroke-linecap:butt;stroke-linejoin:round;stroke-miterlimit:4;stroke-dasharray:none;stroke-opacity:1" />
  </g>
</svg>
